<svg width="20" height="20" viewBox="0 0 20 20" fill="none" xmlns="http://www.w3.org/2000/svg">
<path d="M19.1656 1.81695H15V0.910182C15.0004 0.79053 14.9791 0.671971 14.9373 0.56134C14.8955 0.450709 14.8341 0.350193 14.7565 0.265586C14.679 0.180978 14.5868 0.113952 14.4854 0.0683715C14.384 0.0227905 14.2753 -0.00044424 14.1656 6.4325e-06H5.83437C5.72469 -0.00044424 5.616 0.0227905 5.51459 0.0683715C5.41317 0.113952 5.32102 0.180978 5.24346 0.265586C5.1659 0.350193 5.10446 0.450709 5.06267 0.56134C5.02089 0.671971 4.99959 0.79053 5 0.910182V1.81695H0.834375C0.613085 1.81695 0.400858 1.91284 0.244383 2.08353C0.0879071 2.25422 0 2.48573 0 2.72712C0 2.96852 0.0879071 3.20002 0.244383 3.37072C0.400858 3.54141 0.613085 3.6373 0.834375 3.6373H2.5V17.2729C2.5 17.9962 2.76339 18.6898 3.23223 19.2013C3.70107 19.7127 4.33696 20 5 20H15C15.663 20 16.2989 19.7127 16.7678 19.2013C17.2366 18.6898 17.5 17.9962 17.5 17.2729V3.6373H19.1656C19.3869 3.6373 19.5991 3.54141 19.7556 3.37072C19.9121 3.20002 20 2.96852 20 2.72712C20 2.48573 19.9121 2.25422 19.7556 2.08353C19.5991 1.91284 19.3869 1.81695 19.1656 1.81695ZM15.8344 17.2729C15.8335 17.5137 15.7453 17.7443 15.5889 17.9143C15.4325 18.0842 15.2207 18.1797 15 18.1797H5C4.77925 18.1797 4.5675 18.0842 4.41111 17.9143C4.25472 17.7443 4.16645 17.5137 4.16563 17.2729V3.6373H15.8344V17.2729Z" fill="black"/>
<path d="M7.5 15.4526C7.72075 15.4526 7.9325 15.3571 8.08889 15.1872C8.24528 15.0172 8.33355 14.7866 8.33437 14.5458V7.2712C8.33437 7.0298 8.24647 6.7983 8.08999 6.62761C7.93352 6.45691 7.72129 6.36102 7.5 6.36102C7.27871 6.36102 7.06648 6.45691 6.91001 6.62761C6.75353 6.7983 6.66563 7.0298 6.66563 7.2712V14.5458C6.66645 14.7866 6.75472 15.0172 6.91111 15.1872C7.0675 15.3571 7.27925 15.4526 7.5 15.4526Z" fill="black"/>
<path d="M12.5 15.4526C12.7207 15.4526 12.9325 15.3571 13.0889 15.1872C13.2453 15.0172 13.3335 14.7866 13.3344 14.5458V7.2712C13.3344 7.0298 13.2465 6.7983 13.09 6.62761C12.9335 6.45691 12.7213 6.36102 12.5 6.36102C12.2787 6.36102 12.0665 6.45691 11.91 6.62761C11.7535 6.7983 11.6656 7.0298 11.6656 7.2712V14.5458C11.6665 14.7866 11.7547 15.0172 11.9111 15.1872C12.0675 15.3571 12.2793 15.4526 12.5 15.4526Z" fill="black"/>
</svg>
