<svg width="25" height="25" viewBox="0 0 25 25" fill="none" xmlns="http://www.w3.org/2000/svg">
<path d="M14.6948 7.63961C14.1505 7.37413 13.6545 7.22625 13.0406 7.14964C12.9193 7.13538 12.6962 7.11756 12.5446 7.11222C12.2537 7.10331 12.1948 7.114 12.1109 7.19062C11.9735 7.31356 11.9807 7.57725 12.1234 7.6895C12.2002 7.74831 12.2591 7.76077 12.5981 7.78037C13.6009 7.83916 14.3665 8.11 15.107 8.66589C15.9957 9.33048 16.5524 10.257 16.763 11.4169C16.8165 11.7127 16.8433 11.9603 16.8611 12.3434C16.8718 12.5929 16.8807 12.6481 16.9129 12.7122C17.0146 12.9064 17.3126 12.9349 17.4482 12.7621C17.5196 12.673 17.5285 12.6035 17.516 12.2917C17.4821 11.3777 17.284 10.5474 16.9361 9.84896C16.6862 9.3483 16.4507 9.0258 16.026 8.59996C15.5727 8.14919 15.2301 7.90154 14.6948 7.63961Z" fill="black"/>
<path d="M9.17556 7.44897C9.12023 7.41332 9.02388 7.36344 8.96141 7.34207C8.83291 7.29574 8.63128 7.27614 8.5153 7.30109C8.34577 7.33672 8.13344 7.46323 7.67304 7.80533C7.39645 8.012 7.01637 8.38262 6.92713 8.53227C6.72016 8.88684 6.73264 9.18796 6.98423 9.88104C7.41608 11.0695 8.04778 12.2151 8.87753 13.3198C10.4657 15.4347 12.4661 16.9741 14.9714 18.0058C15.2908 18.1376 15.3943 18.159 15.6441 18.1465C15.9475 18.1323 16.1777 18.0379 16.5024 17.792C16.8611 17.5194 17.375 16.8815 17.5071 16.5412C17.632 16.2187 17.5999 15.9265 17.4143 15.6984C17.309 15.5719 16.531 14.9376 16.167 14.6828C15.8904 14.4904 15.4621 14.2249 15.2658 14.1234C15.0071 13.9915 14.7501 13.9684 14.4985 14.0539C14.3004 14.1216 14.2344 14.1804 13.9454 14.5439C13.7955 14.7291 13.658 14.8966 13.6402 14.9127C13.6206 14.9287 13.5581 14.9643 13.4992 14.9911C13.2655 15.0997 12.9461 15.0338 12.4232 14.7737C12.0164 14.5723 11.6559 14.3176 11.2473 13.9434C10.8993 13.6262 10.5478 13.2129 10.3515 12.8904C10.0981 12.4753 9.90539 11.9354 9.90358 11.6378C9.90358 11.5095 9.95535 11.3278 10.0196 11.2352C10.0446 11.1977 10.2034 11.057 10.3729 10.9198C10.7958 10.5795 10.8904 10.4726 10.9475 10.2695C11.0028 10.0806 10.9439 9.8258 10.7673 9.48193C10.4586 8.87969 9.51458 7.67347 9.17556 7.44897Z" fill="black"/>
<path d="M15.6352 9.91846C15.0856 9.10243 14.2469 8.59996 13.1638 8.4414C12.7373 8.37725 12.5945 8.40041 12.5017 8.54474C12.4161 8.6748 12.4268 8.83159 12.5285 8.94741C12.5945 9.02402 12.6909 9.05965 12.8658 9.07392C13.3494 9.11311 13.8793 9.27168 14.238 9.48548C14.6556 9.73316 14.9982 10.0895 15.2337 10.5207C15.4407 10.8984 15.5603 11.3848 15.5603 11.8463C15.5603 12.1456 15.6013 12.2561 15.7387 12.3256C15.8208 12.3684 15.9689 12.3719 16.0385 12.3363C16.1027 12.3024 16.1777 12.2205 16.2009 12.1599C16.2258 12.0957 16.2258 11.7091 16.2027 11.4971C16.1366 10.918 15.9439 10.3781 15.6352 9.91846Z" fill="black"/>
<path d="M14.395 10.2107C14.1648 9.99507 13.8954 9.86144 13.5438 9.7866C13.4707 9.77056 13.3333 9.75453 13.2405 9.74918C13.0906 9.74027 13.0621 9.74384 12.9942 9.77769C12.814 9.87035 12.764 10.1216 12.8943 10.2766C12.9657 10.3603 13.0317 10.3853 13.2512 10.412C13.7187 10.469 13.9953 10.6436 14.1524 10.9804C14.2255 11.1389 14.2683 11.31 14.2915 11.5541C14.3111 11.7376 14.3379 11.8053 14.4236 11.8695C14.5414 11.9603 14.7358 11.9568 14.8411 11.8605C14.9535 11.7572 14.9732 11.6325 14.925 11.3153C14.8536 10.8289 14.6912 10.4904 14.395 10.2107Z" fill="black"/>
<path fill-rule="evenodd" clip-rule="evenodd" d="M22.2222 25H2.77778C1.24365 25 0 23.7563 0 22.2222V2.77778C0 1.24365 1.24365 0 2.77778 0H22.2222C23.7563 0 25 1.24365 25 2.77778V22.2222C25 23.7563 23.7563 25 22.2222 25ZM21.5277 12.5001C21.5277 7.51415 17.4858 3.47228 12.4999 3.47228C7.51404 3.47228 3.47217 7.51415 3.47217 12.5001C3.47217 17.486 7.51404 21.5278 12.4999 21.5278C17.4858 21.5278 21.5277 17.486 21.5277 12.5001Z" fill="black"/>
</svg>
