<svg width="25" height="25" viewBox="0 0 25 25" fill="none" xmlns="http://www.w3.org/2000/svg">
<path fill-rule="evenodd" clip-rule="evenodd" d="M10.7787 9.96097L15.2819 12.3271L10.7792 14.677L10.7787 9.96097Z" fill="black"/>
<path fill-rule="evenodd" clip-rule="evenodd" d="M22.2222 25H2.77778C1.24365 25 0 23.7563 0 22.2222V2.77778C0 1.24365 1.24365 0 2.77778 0H22.2222C23.7563 0 25 1.24365 25 2.77778V22.2222C25 23.7563 23.7563 25 22.2222 25ZM20.0042 7.47785C19.4325 6.87459 18.7984 6.81294 18.4408 6.77815C18.4019 6.77438 18.3663 6.77092 18.3345 6.76712C16.0022 6.59717 12.5037 6.59717 12.5037 6.59717H12.4964C12.4964 6.59717 8.998 6.59717 6.66571 6.76712C6.63381 6.77091 6.59825 6.77437 6.55944 6.77814C6.20151 6.81291 5.56772 6.87449 4.99539 7.47785C4.49591 7.98717 4.33341 9.14375 4.33341 9.14375C4.33341 9.14375 4.16675 10.5023 4.16675 11.8603V13.1338C4.16675 14.4924 4.33341 15.8504 4.33341 15.8504C4.33341 15.8504 4.49591 17.007 4.99539 17.5163C5.5217 18.0711 6.18459 18.1512 6.60694 18.2022C6.69366 18.2127 6.77024 18.2219 6.83341 18.2338C8.16675 18.3629 12.5001 18.4027 12.5001 18.4027C12.5001 18.4027 16.0022 18.3975 18.3345 18.2275C18.3667 18.2236 18.4027 18.2201 18.4421 18.2162C18.8 18.181 19.4332 18.1188 20.0042 17.5163C20.5037 17.007 20.6667 15.8504 20.6667 15.8504C20.6667 15.8504 20.8334 14.4924 20.8334 13.1338V11.8603C20.8334 10.5023 20.6667 9.14375 20.6667 9.14375C20.6667 9.14375 20.5037 7.98717 20.0042 7.47785Z" fill="black"/>
</svg>
